# xmcd
#
# Track frame offsets:
#	150
#	15973
#	37813
#	52435
#	65899
#	81021
#	93566
#	109800
#	125530
#	142617
#	160597
#	174924
#	192544
#	211778
#	229172
#	241149
#	254017
#	268359
#	282270
#	294397
#	311159
#
# Disc length: 4319 seconds
#
# Revision: 1
# Processed by: cddbd v1.5.1PL0 Copyright (c) Steve Scherf et al.
# Submitted via: audiograbber 1.81.03
#
DISCID=3110dd15
DTITLE=Chris Isaak - Greatest Hits
DYEAR=1900
DGENRE=Crossover
TTITLE0=Please
TTITLE1=Wicked game
TTITLE2=Blue hotel
TTITLE3=San Francisco days
TTITLE4=Heart full of soul
TTITLE5=Somebody's crying
TTITLE6=Two hearts
TTITLE7=Heart shaped world
TTITLE8=Dancin'
TTITLE9=Blue spanish sky
TTITLE10=I want your love
TTITLE11=You owe m some kind of love
TTITLE12=Lie to me
TTITLE13=Beautiful homes
TTITLE14=Solitary man
TTITLE15=Baby did a bad bad thing
TTITLE16=Lonely with a broken heart
TTITLE17=Pretty girls don't cry
TTITLE18=Voodoo
TTITLE19=Waiting
TTITLE20=Go walking down there
EXTD=
EXTT0=
EXTT1=
EXTT2=
EXTT3=
EXTT4=
EXTT5=
EXTT6=
EXTT7=
EXTT8=
EXTT9=
EXTT10=
EXTT11=
EXTT12=
EXTT13=
EXTT14=
EXTT15=
EXTT16=
EXTT17=
EXTT18=
EXTT19=
EXTT20=
PLAYORDER=
